<svg xmlns="http://www.w3.org/2000/svg" xmlns:xlink="http://www.w3.org/1999/xlink" width="500" zoomAndPan="magnify" viewBox="0 0 375 374.999991" height="500" preserveAspectRatio="xMidYMid meet" version="1.0"><defs><clipPath id="1c4ed16f29"><path d="M 5 48.375 L 370 48.375 L 370 326.625 L 5 326.625 Z M 5 48.375 " clip-rule="nonzero"/></clipPath></defs><g clip-path="url(#1c4ed16f29)"><path fill="#ffffff" d="M 294.609375 48.363281 C 251.589844 48.363281 213.0625 67.980469 187.5 98.753906 C 161.933594 67.980469 123.40625 48.363281 80.386719 48.363281 L 5.398438 48.363281 L 5.398438 326.636719 L 69.671875 326.636719 L 69.671875 112.640625 L 80.386719 112.640625 C 121.730469 112.640625 155.359375 146.269531 155.359375 187.613281 L 155.359375 326.636719 L 219.636719 326.636719 L 219.636719 187.613281 C 219.636719 146.269531 253.269531 112.640625 294.609375 112.640625 L 305.324219 112.640625 L 305.324219 326.636719 L 369.597656 326.636719 L 369.597656 48.363281 L 294.609375 48.363281 " fill-opacity="1" fill-rule="nonzero"/><path fill="#ffffff" d="M 294.609375 48.363281 C 251.589844 48.363281 213.0625 67.980469 187.5 98.753906 C 161.933594 67.980469 123.40625 48.363281 80.386719 48.363281 L 5.398438 48.363281 L 5.398438 326.636719 L 69.671875 326.636719 L 69.671875 112.640625 L 80.386719 112.640625 C 121.730469 112.640625 155.359375 146.269531 155.359375 187.613281 L 155.359375 326.636719 L 219.636719 326.636719 L 219.636719 187.613281 C 219.636719 146.269531 253.269531 112.640625 294.609375 112.640625 L 305.324219 112.640625 L 305.324219 326.636719 L 369.597656 326.636719 L 369.597656 48.363281 L 294.609375 48.363281 " fill-opacity="1" fill-rule="nonzero"/></g></svg>